<?xml version="1.0" standalone="no"?>
<!DOCTYPE svg PUBLIC "-//W3C//DTD SVG 20010904//EN"
 "http://www.w3.org/TR/2001/REC-SVG-20010904/DTD/svg10.dtd">
<svg version="1.0" xmlns="http://www.w3.org/2000/svg"
 width="904.000000pt" height="980.000000pt" viewBox="0 0 904.000000 980.000000"
 preserveAspectRatio="xMidYMid meet">

<g transform="translate(0.000000,980.000000) scale(0.100000,-0.100000)"
fill="#000000" stroke="none">
<path d="M5172 9706 c-312 -330 -538 -721 -583 -1006 -23 -151 9 -373 81 -556
17 -43 66 -144 107 -224 190 -362 254 -495 287 -597 45 -141 56 -210 56 -364
0 -206 -35 -348 -147 -598 -35 -79 -62 -145 -60 -148 2 -2 43 40 89 94 381
439 501 708 459 1027 -17 122 -43 197 -127 361 -39 77 -114 224 -167 326 -99
193 -153 339 -180 484 -62 328 -4 653 195 1105 68 152 79 180 74 180 -2 0 -40
-38 -84 -84z"/>
<path d="M3913 8597 c-258 -370 -357 -629 -340 -896 12 -191 50 -275 272 -611
255 -383 305 -503 305 -719 0 -169 -22 -287 -95 -509 -11 -33 22 9 99 126 170
259 246 454 246 635 0 149 -40 243 -213 512 -293 454 -322 524 -334 791 -9
204 20 385 103 653 19 62 34 115 32 116 -2 2 -35 -42 -75 -98z"/>
<path d="M3890 5569 c-1023 -54 -1811 -197 -2215 -402 -79 -40 -116 -67 -177
-127 -110 -109 -128 -151 -128 -300 0 -589 144 -1237 390 -1746 278 -578 660
-1030 1192 -1410 143 -103 233 -172 323 -252 260 -232 703 -336 1350 -319 342
9 578 44 779 114 167 58 255 109 378 220 76 68 182 149 353 270 122 86 272
217 488 424 l162 156 190 58 c479 145 904 322 1200 500 368 222 649 533 715
791 25 96 27 250 4 338 -67 259 -344 500 -639 555 -49 10 -465 15 -565 8 l-25
-2 -5 225 c-5 222 -5 226 -32 271 -190 323 -969 529 -2348 620 -213 14 -1176
20 -1390 8z m1150 -169 c1022 -46 1849 -183 2220 -370 130 -65 240 -174 240
-237 0 -40 -37 -99 -94 -150 -213 -190 -823 -339 -1771 -434 -185 -18 -296
-22 -940 -26 -779 -5 -1053 2 -1390 37 -1013 106 -1631 287 -1745 511 -25 48
-25 70 -1 117 117 226 792 419 1796 511 180 17 443 34 695 44 175 8 791 6 990
-3z m3274 -1293 c70 -32 192 -150 224 -217 27 -58 39 -147 31 -230 -28 -266
-311 -549 -730 -731 -151 -66 -583 -199 -644 -199 -27 0 -15 39 78 242 108
236 141 318 221 568 75 236 90 262 231 409 146 151 240 193 425 188 89 -3 114
-7 164 -30z"/>
<path d="M1225 3181 c-283 -97 -607 -249 -798 -375 -163 -107 -295 -249 -367
-393 -48 -97 -60 -142 -60 -218 2 -320 121 -487 550 -772 348 -231 954 -562
1345 -733 66 -29 249 -111 407 -181 158 -71 343 -151 410 -178 391 -155 883
-274 1293 -313 186 -17 842 -17 1030 0 317 30 701 111 1028 218 203 67 370
135 712 289 143 64 321 144 395 178 179 80 660 324 835 424 179 103 519 311
610 374 181 125 279 232 362 397 l58 114 -1 116 c-1 131 -18 211 -65 305 -54
110 -125 196 -229 280 -82 66 -142 97 -170 90 -26 -7 -90 -73 -90 -92 0 -9 26
-36 58 -61 160 -124 231 -202 283 -313 129 -276 -38 -556 -476 -800 -558 -310
-1616 -552 -2830 -648 -214 -16 -1432 -23 -1751 -10 -848 37 -1824 197 -2451
402 -699 228 -1076 499 -1134 812 -16 84 0 167 49 262 48 93 193 240 322 324
135 89 405 219 615 296 226 82 307 115 323 130 10 9 10 18 2 41 -17 43 -59 94
-78 94 -9 0 -93 -27 -187 -59z"/>
</g>
</svg>
